<?xml version="1.0" encoding="UTF-8" standalone="no"?>
<!DOCTYPE svg PUBLIC "-//W3C//DTD SVG 1.1//EN"
 "http://www.w3.org/Graphics/SVG/1.1/DTD/svg11.dtd">
<!-- Generated by graphviz version 2.43.0 (0)
 -->
<!-- Title: NewLandscape Pages: 1 -->
<svg width="469pt" height="277pt"
 viewBox="0.00 0.00 469.00 276.99" xmlns="http://www.w3.org/2000/svg" xmlns:xlink="http://www.w3.org/1999/xlink">
<g id="graph0" class="graph" transform="scale(1 1) rotate(0) translate(4 272.99)">
<title>NewLandscape</title>
<polygon fill="white" stroke="transparent" points="-4,4 -4,-272.99 465,-272.99 465,4 -4,4"/>
<g id="clust1" class="cluster">
<title>cluster_tools</title>
<polygon fill="none" stroke="black" stroke-dasharray="5,2" points="8,-185.99 8,-260.99 453,-260.99 453,-185.99 8,-185.99"/>
<text text-anchor="middle" x="230.5" y="-245.79" font-family="Helvetica,sans-Serif" font-size="14.00">External Tools</text>
</g>
<!-- WS -->
<g id="node1" class="node">
<title>WS</title>
<polygon fill="none" stroke="black" points="117.5,-229.99 16.5,-229.99 16.5,-193.99 117.5,-193.99 117.5,-229.99"/>
<text text-anchor="middle" x="67" y="-208.29" font-family="Times,serif" font-size="14.00">Web Search</text>
</g>
<!-- AI -->
<g id="node5" class="node">
<title>AI</title>
<ellipse fill="#f2f2f2" stroke="black" cx="231" cy="-130.12" rx="77.15" ry="26.74"/>
<text text-anchor="middle" x="231" y="-133.92" font-family="Times,serif" font-size="14.00">AI</text>
<text text-anchor="middle" x="231" y="-118.92" font-family="Times,serif" font-size="14.00">Orchestrator</text>
</g>
<!-- WS&#45;&gt;AI -->
<g id="edge1" class="edge">
<title>WS&#45;&gt;AI</title>
<path fill="none" stroke="black" d="M67,-193.79C67,-169.64 67,-130 67,-130 67,-130 143.8,-130 143.8,-130"/>
<polygon fill="black" stroke="black" points="143.8,-133.5 153.8,-130 143.8,-126.5 143.8,-133.5"/>
</g>
<!-- DB -->
<g id="node2" class="node">
<title>DB</title>
<polygon fill="none" stroke="black" points="218.5,-229.99 135.5,-229.99 135.5,-193.99 218.5,-193.99 218.5,-229.99"/>
<text text-anchor="middle" x="177" y="-208.29" font-family="Times,serif" font-size="14.00">Database</text>
</g>
<!-- DB&#45;&gt;AI -->
<g id="edge2" class="edge">
<title>DB&#45;&gt;AI</title>
<path fill="none" stroke="black" d="M186.21,-193.82C186.21,-193.82 186.21,-162.02 186.21,-162.02"/>
<polygon fill="black" stroke="black" points="189.71,-162.02 186.21,-152.02 182.71,-162.02 189.71,-162.02"/>
</g>
<!-- SCH -->
<g id="node3" class="node">
<title>SCH</title>
<polygon fill="none" stroke="black" points="333,-229.99 237,-229.99 237,-193.99 333,-193.99 333,-229.99"/>
<text text-anchor="middle" x="285" y="-208.29" font-family="Times,serif" font-size="14.00">Scheduling</text>
</g>
<!-- SCH&#45;&gt;AI -->
<g id="edge3" class="edge">
<title>SCH&#45;&gt;AI</title>
<path fill="none" stroke="black" d="M272.54,-193.82C272.54,-193.82 272.54,-162.93 272.54,-162.93"/>
<polygon fill="black" stroke="black" points="276.04,-162.93 272.54,-152.93 269.04,-162.93 276.04,-162.93"/>
</g>
<!-- MSG -->
<g id="node4" class="node">
<title>MSG</title>
<polygon fill="none" stroke="black" points="445,-229.99 351,-229.99 351,-193.99 445,-193.99 445,-229.99"/>
<text text-anchor="middle" x="398" y="-208.29" font-family="Times,serif" font-size="14.00">Messaging</text>
</g>
<!-- MSG&#45;&gt;AI -->
<g id="edge4" class="edge">
<title>MSG&#45;&gt;AI</title>
<path fill="none" stroke="black" d="M398,-193.79C398,-169.64 398,-130 398,-130 398,-130 318.15,-130 318.15,-130"/>
<polygon fill="black" stroke="black" points="318.15,-126.5 308.15,-130 318.15,-133.5 318.15,-126.5"/>
</g>
<!-- PKM -->
<g id="node6" class="node">
<title>PKM</title>
<path fill="none" stroke="black" d="M340.5,-47.6C340.5,-50.24 291.42,-52.38 231,-52.38 170.58,-52.38 121.5,-50.24 121.5,-47.6 121.5,-47.6 121.5,-4.65 121.5,-4.65 121.5,-2.01 170.58,0.13 231,0.13 291.42,0.13 340.5,-2.01 340.5,-4.65 340.5,-4.65 340.5,-47.6 340.5,-47.6"/>
<path fill="none" stroke="black" d="M340.5,-47.6C340.5,-44.97 291.42,-42.83 231,-42.83 170.58,-42.83 121.5,-44.97 121.5,-47.6"/>
<text text-anchor="middle" x="231" y="-29.93" font-family="Times,serif" font-size="14.00">PKM</text>
<text text-anchor="middle" x="231" y="-14.93" font-family="Times,serif" font-size="14.00">(Personal Knowledge Mgmt)</text>
</g>
<!-- AI&#45;&gt;PKM -->
<g id="edge5" class="edge">
<title>AI&#45;&gt;PKM</title>
<path fill="none" stroke="black" d="M205.31,-104.68C205.31,-104.68 205.31,-62.39 205.31,-62.39"/>
<polygon fill="black" stroke="black" points="208.81,-62.39 205.31,-52.39 201.81,-62.39 208.81,-62.39"/>
<text text-anchor="middle" x="219.5" y="-74.05" font-family="Times,serif" font-size="14.00">Add knowledge</text>
</g>
<!-- PKM&#45;&gt;AI -->
<g id="edge6" class="edge">
<title>PKM&#45;&gt;AI</title>
<path fill="none" stroke="black" d="M256.69,-52.37C256.69,-52.37 256.69,-94.61 256.69,-94.61"/>
<polygon fill="black" stroke="black" points="253.19,-94.61 256.69,-104.61 260.19,-94.61 253.19,-94.61"/>
<text text-anchor="middle" x="340" y="-74.05" font-family="Times,serif" font-size="14.00">Pull context</text>
</g>
</g>
</svg>
