<svg version="1.1" xmlns="http://www.w3.org/2000/svg" viewBox="0 0 524.35546875 38.5703125" width="524.35546875" height="38.5703125" filter="invert(93%) hue-rotate(180deg)" class="excalidraw-svg"><!-- svg-source:excalidraw --><metadata></metadata><defs><style class="style-fonts">
      </style></defs><rect x="0" y="0" width="524.35546875" height="38.5703125" fill="#ffffff"></rect><g stroke-linecap="round" transform="translate(10 10) rotate(0 120.37109375 8.93359375)"><path d="M4.47 0 C96.81 1.28, 190.25 2.27, 236.28 0 M4.47 0 C58.5 -0.56, 111.28 -0.4, 236.28 0 M236.28 0 C238.79 1.44, 242.7 2.13, 240.74 4.47 M236.28 0 C239.27 -0.09, 241.09 1.43, 240.74 4.47 M240.74 4.47 C241.3 8.01, 239.98 12.11, 240.74 13.4 M240.74 4.47 C240.42 7.39, 240.7 11.3, 240.74 13.4 M240.74 13.4 C239.81 17.79, 237.42 19.39, 236.28 17.87 M240.74 13.4 C241.66 15.71, 238.48 16.85, 236.28 17.87 M236.28 17.87 C189.74 20.17, 140.68 19.25, 4.47 17.87 M236.28 17.87 C146.71 15.66, 56.51 16.25, 4.47 17.87 M4.47 17.87 C1.52 16.47, -1.89 17.07, 0 13.4 M4.47 17.87 C2.89 19.06, 0.82 18.43, 0 13.4 M0 13.4 C-0.09 10.52, -0.69 7.48, 0 4.47 M0 13.4 C-0.16 9.89, -0.4 6.65, 0 4.47 M0 4.47 C1.29 1.25, 0.36 -1.2, 4.47 0 M0 4.47 C-1.96 3.35, 0.55 -0.88, 4.47 0" stroke="#1e1e1e" stroke-width="2" fill="none"></path></g><g stroke-linecap="round" transform="translate(273.61328125 10.703125) rotate(0 120.37109375 8.93359375)"><path d="M4.47 0 C81.42 -1.13, 158.07 1.57, 236.28 0 M4.47 0 C73.26 -0.05, 142.57 1.26, 236.28 0 M236.28 0 C239.01 -1.13, 239.55 -0.22, 240.74 4.47 M236.28 0 C241.12 -0.94, 239.86 2.27, 240.74 4.47 M240.74 4.47 C240.43 7.06, 241.41 8.74, 240.74 13.4 M240.74 4.47 C240.78 8.02, 240.73 10.37, 240.74 13.4 M240.74 13.4 C241.34 17.55, 237.51 17.82, 236.28 17.87 M240.74 13.4 C241.32 15.92, 241.51 18.48, 236.28 17.87 M236.28 17.87 C150.44 14.61, 65.42 16.3, 4.47 17.87 M236.28 17.87 C146.41 18.85, 54.66 18.32, 4.47 17.87 M4.47 17.87 C-0.46 19.01, -0.58 17.13, 0 13.4 M4.47 17.87 C1.17 18.72, -0.04 16.4, 0 13.4 M0 13.4 C-0.56 10.1, 0.16 6.89, 0 4.47 M0 13.4 C-0.3 10.64, -0.31 7.99, 0 4.47 M0 4.47 C-1.46 -0.45, 2.38 1.68, 4.47 0 M0 4.47 C0.36 0.35, 0.25 0.84, 4.47 0" stroke="#1e1e1e" stroke-width="2" fill="none"></path></g><g stroke-linecap="round" transform="translate(128.41796875 12.86328125) rotate(0 7.306640625 7.306640625)"><path d="M3.65 0 C5.85 0.05, 7.18 -0.29, 10.96 0 M3.65 0 C5.54 0.01, 7.85 0.05, 10.96 0 M10.96 0 C13.48 -0.88, 13.77 0.24, 14.61 3.65 M10.96 0 C12.78 0.99, 13.81 1.54, 14.61 3.65 M14.61 3.65 C14.9 5.54, 14.81 7.12, 14.61 10.96 M14.61 3.65 C14.56 5.94, 14.61 7.97, 14.61 10.96 M14.61 10.96 C13.63 12.45, 13.62 13.76, 10.96 14.61 M14.61 10.96 C14.74 13.35, 13.36 15.42, 10.96 14.61 M10.96 14.61 C9.05 14.57, 7.51 14.85, 3.65 14.61 M10.96 14.61 C8.3 14.44, 5.4 14.6, 3.65 14.61 M3.65 14.61 C0.48 15.38, -0.91 13.45, 0 10.96 M3.65 14.61 C0.3 15.61, 0.61 12.65, 0 10.96 M0 10.96 C-0.17 8.83, 0.03 6.09, 0 3.65 M0 10.96 C-0.16 8.31, -0.1 5.43, 0 3.65 M0 3.65 C0.53 0.51, 0.9 0.62, 3.65 0 M0 3.65 C-0.25 0.56, 1.22 0.18, 3.65 0" stroke="#1e1e1e" stroke-width="2" fill="none"></path></g></svg>